# xmcd
#
# Track frame offsets: 
#        150
#        10323
#        20667
#        32225
#        43503
#        53389
#        64590
#        75531
#        84956
#        98215
#        114427
#
# Disc length: 1714 seconds
#
# Revision: 0
# Processed by: cddbd v1.5.2PL0 Copyright (c) Steve Scherf et al.
# Submitted via: ExactAudioCopy v1.0b1
#
DISCID=7806b00b
DTITLE=Jean Shepard - Super Hits
DYEAR=2011
DGENRE=Country
TTITLE0=Second Fiddle (To An Old Guitar)
TTITLE1=A Dear John Letter (With Ferlin Husky)
TTITLE2=Slippin' Away
TTITLE3=A Satisfied Mind
TTITLE4=Many Happy Hangovers To You
TTITLE5=Seven Lonely Days
TTITLE6=The Key's In The Mailbox
TTITLE7=Why Don't You Haul Off And Love Me
TTITLE8=The Two Of Us
TTITLE9=The Wonders You Perform
TTITLE10=We've Got Another Chance
EXTD=
EXTT0=
EXTT1=
EXTT2=
EXTT3=
EXTT4=
EXTT5=
EXTT6=
EXTT7=
EXTT8=
EXTT9=
EXTT10=
PLAYORDER=
